<svg xmlns="http://www.w3.org/2000/svg" >
    <symbol id="bell" viewBox="0 0 256 256">
    <defs>
</defs>
<g style="stroke: none; stroke-width: 0; stroke-dasharray: none; stroke-linecap: butt; stroke-linejoin: miter; stroke-miterlimit: 10; fill: none; fill-rule: nonzero; opacity: 1;" transform="translate(1.4065934065934016 1.4065934065934016) scale(2.81 2.81)" >
	<path d="M 83.25 74.548 H 6.75 c -1.536 0 -2.864 -0.988 -3.306 -2.457 c -0.441 -1.468 0.122 -3.022 1.401 -3.868 c 0.896 -0.594 1.954 -1.152 3.233 -1.707 c 5.52 -2.514 6.42 -16.025 7.144 -26.882 c 0.182 -2.74 0.355 -5.327 0.59 -7.664 c 1.926 -12.752 8.052 -20.942 18.223 -24.424 C 35.767 3.067 40.169 0 45 0 s 9.233 3.067 10.964 7.546 c 10.171 3.482 16.298 11.671 18.214 24.352 c 0.245 2.409 0.416 4.996 0.6 7.736 c 0.723 10.857 1.624 24.368 7.168 26.893 c 1.255 0.544 2.313 1.102 3.21 1.696 c 1.279 0.846 1.842 2.4 1.4 3.868 C 86.114 73.56 84.785 74.548 83.25 74.548 z M 45 2.934 c -3.818 0 -7.279 2.556 -8.416 6.215 l -0.228 0.733 l -0.732 0.231 c -9.568 3.018 -15.096 10.287 -16.9 22.224 c -0.221 2.216 -0.392 4.779 -0.573 7.493 c -0.816 12.242 -1.74 26.117 -8.88 29.368 c -1.129 0.49 -2.064 0.982 -2.806 1.473 c -0.265 0.175 -0.26 0.409 -0.21 0.575 c 0.051 0.168 0.177 0.368 0.496 0.368 h 76.5 c 0.318 0 0.445 -0.2 0.496 -0.368 c 0.05 -0.166 0.054 -0.4 -0.209 -0.575 h -0.001 c -0.741 -0.491 -1.677 -0.983 -2.782 -1.462 c -7.163 -3.261 -8.088 -17.137 -8.905 -29.379 c -0.181 -2.714 -0.352 -5.277 -0.582 -7.565 c -1.795 -11.864 -7.323 -19.134 -16.891 -22.151 l -0.732 -0.231 L 53.416 9.15 C 52.279 5.49 48.818 2.934 45 2.934 z" style="stroke: none; stroke-width: 1; stroke-dasharray: none; stroke-linecap: butt; stroke-linejoin: miter; stroke-miterlimit: 10; fill: rgb(0,0,0); fill-rule: nonzero; opacity: 1;" transform=" matrix(1 0 0 1 0 0) " stroke-linecap="round" />
	<path d="M 33.257 78.292 C 33.277 84.75 38.536 90 45 90 c 6.463 0 11.723 -5.25 11.743 -11.708 H 33.257 z M 45 87.066 c -3.816 0 -7.063 -2.443 -8.285 -5.843 h 16.57 C 52.063 84.623 48.816 87.066 45 87.066 z" style="stroke: none; stroke-width: 1; stroke-dasharray: none; stroke-linecap: butt; stroke-linejoin: miter; stroke-miterlimit: 10; : rgb(0,0,0); fill-rule: nonzero; opacity: 1;" transform=" matrix(1 0 0 1 0 0) " stroke-linecap="round" />
</g>
    </symbol>
    <symbol id="message" viewBox="0 0 600.619 600.619">
    <g>
		<path d="M541.979,5.706H58.64c-32.059,0-58.14,26.082-58.14,58.14V424.84c0,31.556,25.271,57.32,56.636,58.121l0.139,53.936
			c0.021,8.118,1.679,15.971,4.928,23.34c3.092,7.013,7.483,13.259,13.048,18.562c10.903,10.391,25.18,16.114,40.198,16.114
			c10.843,0,21.471-3.056,30.737-8.835L311.471,482.98h230.508c32.059,0,58.141-26.081,58.141-58.14V63.846
			C600.117,31.788,574.037,5.706,541.979,5.706z M557.277,424.84c0,8.449-6.85,15.3-15.299,15.3H303.586
			c-2.863,0-5.668,0.803-8.097,2.318L123.512,549.729c-2.582,1.61-5.357,2.343-8.063,2.343c-7.958,0-15.311-6.335-15.334-15.285
			l-0.208-81.386c-0.021-8.435-6.866-15.261-15.3-15.261H58.64c-8.45,0-15.3-6.851-15.3-15.301V63.846c0-8.45,6.851-15.3,15.3-15.3
			h483.338c8.449,0,15.301,6.85,15.301,15.3V424.84H557.277L557.277,424.84z"/>
		<path d="M115.449,595.413c-15.147,0-29.545-5.771-40.542-16.252c-5.614-5.351-10.042-11.649-13.161-18.723
			c-3.277-7.434-4.95-15.354-4.97-23.541l-0.137-53.451c-15.138-0.51-29.304-6.771-39.939-17.663C5.93,454.755,0,440.214,0,424.84
			V63.846c0-32.334,26.306-58.64,58.64-58.64h483.338c32.333,0,58.639,26.306,58.641,58.64v360.995
			c0,32.334-26.306,58.64-58.641,58.64H311.614L146.45,586.502C137.104,592.332,126.384,595.413,115.449,595.413z M58.64,6.206
			C26.857,6.206,1,32.063,1,63.846V424.84c0,15.111,5.829,29.404,16.414,40.244c10.566,10.821,24.677,16.993,39.735,17.377
			l0.486,0.013l0.14,54.422c0.021,8.048,1.664,15.833,4.885,23.139c3.066,6.953,7.418,13.145,12.936,18.402
			c10.811,10.303,24.964,15.977,39.853,15.977c10.748,0,21.285-3.029,30.472-8.759L311.327,482.48h230.651
			c31.783,0,57.641-25.857,57.641-57.64V63.846c-0.002-31.783-25.859-57.64-57.641-57.64H58.64z M115.449,552.572
			c-8.708,0-15.812-7.081-15.834-15.784l-0.208-81.386c-0.021-8.14-6.66-14.762-14.8-14.762H58.64c-8.712,0-15.8-7.088-15.8-15.801
			V63.846c0-8.712,7.088-15.8,15.8-15.8h483.338c8.713,0,15.801,7.088,15.801,15.8V424.84c-0.002,8.712-7.09,15.8-15.801,15.8
			H303.586c-2.772,0-5.481,0.775-7.833,2.242L123.777,550.153C121.24,551.736,118.36,552.572,115.449,552.572z M58.64,49.046
			c-8.161,0-14.8,6.639-14.8,14.8V424.84c0,8.161,6.64,14.801,14.8,14.801h25.966c8.69,0,15.778,7.069,15.8,15.76l0.208,81.386
			c0.021,8.153,6.676,14.786,14.834,14.786c2.724,0,5.42-0.784,7.798-2.267l171.977-107.271c2.51-1.566,5.402-2.395,8.362-2.395
			h238.393c8.16,0,14.799-6.639,14.799-14.8l0.002-360.994c0-8.161-6.64-14.8-14.801-14.8H58.64z"/>
	</g>
    </symbol>
	<symbol id="rating-1" viewBox="0 0 16 16">
		<rect x="3" y="8" width="2" height="6" rx="1" fill="#754FFE"></rect>
        <rect x="7" y="5" width="2" height="9" rx="1" fill="#DBD8E9"></rect>
        <rect x="11" y="2" width="2" height="12" rx="1" fill="#DBD8E9"></rect>
	</symbol>
	<symbol id="rating-2" viewBox="0 0 16 16">
		<rect x="3" y="8" width="2" height="6" rx="1" fill="#754FFE"></rect>
        <rect x="7" y="5" width="2" height="9" rx="1" fill="#754FFE"></rect>
        <rect x="11" y="2" width="2" height="12" rx="1" fill="#DBD8E9"></rect>
	</symbol>
	<symbol id="rating-3" viewBox="0 0 16 16">
		<rect x="3" y="8" width="2" height="6" rx="1" fill="#754FFE"></rect>
        <rect x="7" y="5" width="2" height="9" rx="1" fill="#754FFE"></rect>
        <rect x="11" y="2" width="2" height="12" rx="1" fill="#754FFE"></rect>
	</symbol>
	
</svg>
